<svg width="24" height="24" viewBox="0 0 24 24" fill="none" xmlns="http://www.w3.org/2000/svg">
<path d="M10.0003 4.27733C10.0979 4.39595 10.1577 4.54112 10.1719 4.69407C10.1862 4.84703 10.1543 5.00075 10.0803 5.13537C9.50209 6.19689 9.20015 7.38676 9.20222 8.59551C9.20222 12.6167 12.4804 15.8728 16.5205 15.8728C17.0475 15.8728 17.5606 15.8178 18.0536 15.7128C18.2047 15.6801 18.3621 15.6926 18.5062 15.7488C18.6503 15.805 18.7746 15.9024 18.8636 16.0288C18.9576 16.1603 19.0055 16.3191 18.9999 16.4806C18.9943 16.6421 18.9355 16.7972 18.8326 16.9219C18.0483 17.8853 17.0588 18.6616 15.9363 19.1941C14.8139 19.7267 13.5867 20.002 12.3443 20C7.73416 20 4 16.2858 4 11.7096C4 8.2655 6.11409 5.31138 9.12421 4.05932C9.27416 3.99595 9.44062 3.98295 9.59858 4.02226C9.75655 4.06157 9.8975 4.15108 10.0003 4.27733V4.27733Z" fill="black"/>
</svg>
