<svg width="24" height="24" viewBox="0 0 24 24" fill="none" xmlns="http://www.w3.org/2000/svg">
<path d="M12 2.4C12.1591 2.4 12.3117 2.46321 12.4243 2.57574C12.5368 2.68826 12.6 2.84087 12.6 3V4.2C12.6 4.35913 12.5368 4.51174 12.4243 4.62426C12.3117 4.73679 12.1591 4.8 12 4.8C11.8409 4.8 11.6883 4.73679 11.5757 4.62426C11.4632 4.51174 11.4 4.35913 11.4 4.2V3C11.4 2.84087 11.4632 2.68826 11.5757 2.57574C11.6883 2.46321 11.8409 2.4 12 2.4V2.4ZM16.8 12C16.8 13.273 16.2943 14.4939 15.3941 15.3941C14.4939 16.2943 13.273 16.8 12 16.8C10.727 16.8 9.50606 16.2943 8.60589 15.3941C7.70571 14.4939 7.2 13.273 7.2 12C7.2 10.727 7.70571 9.50606 8.60589 8.60589C9.50606 7.70571 10.727 7.2 12 7.2C13.273 7.2 14.4939 7.70571 15.3941 8.60589C16.2943 9.50606 16.8 10.727 16.8 12V12ZM21 12.6C21.1591 12.6 21.3117 12.5368 21.4243 12.4243C21.5368 12.3117 21.6 12.1591 21.6 12C21.6 11.8409 21.5368 11.6883 21.4243 11.5757C21.3117 11.4632 21.1591 11.4 21 11.4H19.8C19.6409 11.4 19.4883 11.4632 19.3757 11.5757C19.2632 11.6883 19.2 11.8409 19.2 12C19.2 12.1591 19.2632 12.3117 19.3757 12.4243C19.4883 12.5368 19.6409 12.6 19.8 12.6H21ZM12 19.2C12.1591 19.2 12.3117 19.2632 12.4243 19.3757C12.5368 19.4883 12.6 19.6409 12.6 19.8V21C12.6 21.1591 12.5368 21.3117 12.4243 21.4243C12.3117 21.5368 12.1591 21.6 12 21.6C11.8409 21.6 11.6883 21.5368 11.5757 21.4243C11.4632 21.3117 11.4 21.1591 11.4 21V19.8C11.4 19.6409 11.4632 19.4883 11.5757 19.3757C11.6883 19.2632 11.8409 19.2 12 19.2V19.2ZM4.2 12.6C4.35913 12.6 4.51174 12.5368 4.62426 12.4243C4.73679 12.3117 4.8 12.1591 4.8 12C4.8 11.8409 4.73679 11.6883 4.62426 11.5757C4.51174 11.4632 4.35913 11.4 4.2 11.4H2.9556C2.79647 11.4 2.64386 11.4632 2.53134 11.5757C2.41881 11.6883 2.3556 11.8409 2.3556 12C2.3556 12.1591 2.41881 12.3117 2.53134 12.4243C2.64386 12.5368 2.79647 12.6 2.9556 12.6H4.2ZM4.9752 4.9752C5.03093 4.91932 5.09714 4.87499 5.17004 4.84474C5.24293 4.8145 5.32108 4.79893 5.4 4.79893C5.47892 4.79893 5.55707 4.8145 5.62996 4.84474C5.70285 4.87499 5.76906 4.91932 5.8248 4.9752L7.0248 6.1752C7.13746 6.28786 7.20076 6.44067 7.20076 6.6C7.20076 6.75933 7.13746 6.91214 7.0248 7.0248C6.91214 7.13746 6.75933 7.20076 6.6 7.20076C6.44067 7.20076 6.28786 7.13746 6.1752 7.0248L4.9752 5.8248C4.91932 5.76907 4.87499 5.70285 4.84474 5.62996C4.8145 5.55707 4.79893 5.47892 4.79893 5.4C4.79893 5.32108 4.8145 5.24293 4.84474 5.17004C4.87499 5.09715 4.91932 5.03093 4.9752 4.9752ZM5.8248 19.0248C5.71214 19.1375 5.55933 19.2008 5.4 19.2008C5.24067 19.2008 5.08786 19.1375 4.9752 19.0248C4.86254 18.9121 4.79924 18.7593 4.79924 18.6C4.79924 18.4407 4.86254 18.2879 4.9752 18.1752L6.1752 16.9752C6.28786 16.8625 6.44067 16.7992 6.6 16.7992C6.75933 16.7992 6.91214 16.8625 7.0248 16.9752C7.13746 17.0879 7.20076 17.2407 7.20076 17.4C7.20076 17.5593 7.13746 17.7121 7.0248 17.8248L5.8248 19.0248ZM19.0248 4.9752C18.9691 4.91932 18.9029 4.87499 18.83 4.84474C18.7571 4.8145 18.6789 4.79893 18.6 4.79893C18.5211 4.79893 18.4429 4.8145 18.37 4.84474C18.2971 4.87499 18.2309 4.91932 18.1752 4.9752L16.9752 6.1752C16.8625 6.28786 16.7992 6.44067 16.7992 6.6C16.7992 6.75933 16.8625 6.91214 16.9752 7.0248C17.0879 7.13746 17.2407 7.20076 17.4 7.20076C17.5593 7.20076 17.7121 7.13746 17.8248 7.0248L19.0248 5.8248C19.0807 5.76907 19.125 5.70285 19.1553 5.62996C19.1855 5.55707 19.2011 5.47892 19.2011 5.4C19.2011 5.32108 19.1855 5.24293 19.1553 5.17004C19.125 5.09715 19.0807 5.03093 19.0248 4.9752ZM18.1752 19.0248C18.2879 19.1375 18.4407 19.2008 18.6 19.2008C18.7593 19.2008 18.9121 19.1375 19.0248 19.0248C19.1375 18.9121 19.2008 18.7593 19.2008 18.6C19.2008 18.4407 19.1375 18.2879 19.0248 18.1752L17.8248 16.9752C17.7121 16.8625 17.5593 16.7992 17.4 16.7992C17.2407 16.7992 17.0879 16.8625 16.9752 16.9752C16.8625 17.0879 16.7992 17.2407 16.7992 17.4C16.7992 17.5593 16.8625 17.7121 16.9752 17.8248L18.1752 19.0248Z" fill="black"/>
</svg>
