<svg width="152" height="152" viewBox="0 0 152 152" fill="none" xmlns="http://www.w3.org/2000/svg">
<g filter="url(#filter0_f_11_95)">
<circle cx="76" cy="76" r="32" fill="#6B3054"/>
</g>
<rect x="60" y="60.9412" width="33.8824" height="32" fill="white"/>
<path d="M76 50.902C89.8616 50.902 101.098 62.1384 101.098 76C101.098 89.8616 89.8616 101.098 76 101.098C62.1384 101.098 50.902 89.8616 50.902 76C50.902 62.1384 62.1384 50.902 76 50.902ZM76 63.451C75.5451 63.451 75.1057 63.6157 74.7628 63.9147C74.42 64.2137 74.1971 64.6267 74.1352 65.0773L74.1176 65.3333V74.1176H65.3333C64.8564 74.1178 64.3973 74.299 64.0488 74.6246C63.7003 74.9502 63.4884 75.3959 63.4559 75.8717C63.4234 76.3475 63.5727 76.8179 63.8737 77.1879C64.1747 77.5579 64.6049 77.7998 65.0773 77.8648L65.3333 77.8824H74.1176V86.6667C74.1178 87.1436 74.299 87.6027 74.6246 87.9512C74.9502 88.2997 75.3959 88.5116 75.8717 88.5441C76.3475 88.5766 76.8179 88.4273 77.1879 88.1263C77.5579 87.8253 77.7998 87.3951 77.8648 86.9227L77.8824 86.6667V77.8824H86.6667C87.1436 77.8822 87.6027 77.701 87.9512 77.3754C88.2997 77.0499 88.5116 76.6041 88.5441 76.1283C88.5766 75.6525 88.4273 75.1821 88.1263 74.8121C87.8253 74.4422 87.3951 74.2002 86.9227 74.1352L86.6667 74.1176H77.8824V65.3333C77.8824 64.8341 77.684 64.3553 77.331 64.0023C76.978 63.6493 76.4992 63.451 76 63.451Z" fill="#6B3054"/>
<defs>
<filter id="filter0_f_11_95" x="0.962025" y="0.962025" width="150.076" height="150.076" filterUnits="userSpaceOnUse" color-interpolation-filters="sRGB">
<feFlood flood-opacity="0" result="BackgroundImageFix"/>
<feBlend mode="normal" in="SourceGraphic" in2="BackgroundImageFix" result="shape"/>
<feGaussianBlur stdDeviation="21.519" result="effect1_foregroundBlur_11_95"/>
</filter>
</defs>
</svg>
